<svg xmlns="http://www.w3.org/2000/svg" viewBox="0 0 900 540" font-family="Segoe UI, Arial, sans-serif">
  <rect width="900" height="540" fill="#fafaf7"/>
  <text x="450" y="34" text-anchor="middle" font-size="20" font-weight="700" fill="#2b2b2b">How knowledge is born, moves, and dies</text>

  <!-- birth of knowledge -->
  <rect x="40" y="70" width="250" height="180" rx="10" fill="#fdf6e3" stroke="#b8963e" stroke-width="2"/>
  <text x="165" y="96" text-anchor="middle" font-size="14" font-weight="700" fill="#6e5a20">BORN in one head</text>
  <g font-size="12" fill="#6e5e35">
    <text x="55" y="120">• insight — idle roll on the tech</text>
    <text x="65" y="136" font-size="11">frontier (openness-weighted, 75%</text>
    <text x="65" y="150" font-size="11">aimed at the next era's gates)</text>
    <text x="55" y="172">• practice — 3 harvests master</text>
    <text x="65" y="186" font-size="11">cereal domestication (E5.05)</text>
    <text x="55" y="208">• opportunity — copper ore by a</text>
    <text x="65" y="222" font-size="11">lit fire → smelting (E6.07)</text>
    <text x="55" y="240">• routines — idle minds name habits</text>
  </g>

  <!-- spreads -->
  <rect x="330" y="70" width="250" height="180" rx="10" fill="#eef7ec" stroke="#5c9e58" stroke-width="2"/>
  <text x="455" y="96" text-anchor="middle" font-size="14" font-weight="700" fill="#2d5c2a">SPREADS at the fire</text>
  <g font-size="12" fill="#2f4a2d">
    <text x="345" y="120">• teaching: newest techs first,</text>
    <text x="355" y="136" font-size="11">2 + diffusion speed per talk</text>
    <text x="355" y="150" font-size="11">(story 2× · school 4× · writing 8×)</text>
    <text x="345" y="172">• one routine per conversation</text>
    <text x="345" y="194">• barter: surplus for lack</text>
    <text x="345" y="216">• dawn council → one shared plan</text>
    <text x="345" y="238">• children start near-blank: taught</text>
  </g>

  <!-- dies -->
  <rect x="620" y="70" width="240" height="180" rx="10" fill="#fdecec" stroke="#c05555" stroke-width="2"/>
  <text x="740" y="96" text-anchor="middle" font-size="14" font-weight="700" fill="#7a2727">DIES with its last knower</text>
  <g font-size="12" fill="#7a3a3a">
    <text x="635" y="120">knowledge lives only in NPCs —</text>
    <text x="635" y="136">no shared pool. If the last one</text>
    <text x="635" y="152">who knows a tech dies unheard,</text>
    <text x="635" y="168">the village loses it.</text>
    <text x="635" y="196">MITIGATED once archives/records</text>
    <text x="635" y="212">(E7.30/E8.34) are known: the</text>
    <text x="635" y="228">closest companion inherits.</text>
  </g>

  <g stroke="#666" stroke-width="2" fill="none">
    <line x1="290" y1="160" x2="330" y2="160"/>
    <line x1="580" y1="160" x2="620" y2="160"/>
  </g>
  <g fill="#666">
    <polygon points="330,160 322,155 322,165"/>
    <polygon points="620,160 612,155 612,165"/>
  </g>

  <!-- era engine -->
  <rect x="40" y="290" width="820" height="100" rx="10" fill="#f3eefb" stroke="#8a6cbf" stroke-width="2"/>
  <text x="450" y="317" text-anchor="middle" font-size="14" font-weight="700" fill="#4d3a76">THE ERA ENGINE — civilization as an emergent property</text>
  <g font-size="12" fill="#4a3a6b" text-anchor="middle">
    <text x="450" y="342">settlement era N is reached when every bottleneck tech of era N−1 is known by someone living AND ≥3 techs of era N exist</text>
    <text x="450" y="362">— recomputed on every learn; eras chain E1 Lower Paleolithic → E10 Middle Ages. No script advances the age: only minds do.</text>
  </g>

  <!-- example strip -->
  <rect x="40" y="420" width="820" height="90" rx="10" fill="#f5f5f0" stroke="#999" stroke-width="1.5"/>
  <text x="450" y="446" text-anchor="middle" font-size="13" font-weight="700" fill="#444">A real marathon, in one line</text>
  <text x="450" y="470" text-anchor="middle" font-size="12" fill="#555">Odan taught Senn soft-hammer knapping → Senn discovered Levallois → taught Rasha → Rasha discovered stone points →</text>
  <text x="450" y="488" text-anchor="middle" font-size="12" fill="#555">hafting followed, and the band entered the Upper Paleolithic on day 25 — after most of the founders were already dead.</text>
</svg>
